<?xml version="1.0" encoding="UTF-8" standalone="no"?>
<!-- Generator: Adobe Illustrator 16.0.0, SVG Export Plug-In . SVG Version: 6.00 Build 0)  -->

<svg
   version="1.1"
   id="Capa_1"
   x="0px"
   y="0px"
   width="792px"
   height="792px"
   viewBox="0 0 792 792"
   style="enable-background:new 0 0 792 792;"
   xml:space="preserve"
   sodipodi:docname="fileinterfacesymboloftextpapersheet_79740.svg"
   inkscape:export-filename="..\..\..\Project\Python\Collective\src\descript.png"
   inkscape:export-xdpi="96"
   inkscape:export-ydpi="96"
   inkscape:version="1.2.2 (732a01da63, 2022-12-09)"
   xmlns:inkscape="http://www.inkscape.org/namespaces/inkscape"
   xmlns:sodipodi="http://sodipodi.sourceforge.net/DTD/sodipodi-0.dtd"
   xmlns="http://www.w3.org/2000/svg"
   xmlns:svg="http://www.w3.org/2000/svg"><defs
   id="defs1015" /><sodipodi:namedview
   id="namedview1013"
   pagecolor="#ffffff"
   bordercolor="#000000"
   borderopacity="0.25"
   inkscape:showpageshadow="2"
   inkscape:pageopacity="0.0"
   inkscape:pagecheckerboard="0"
   inkscape:deskcolor="#d1d1d1"
   showgrid="false"
   inkscape:zoom="1.0694444"
   inkscape:cx="395.53247"
   inkscape:cy="396.46753"
   inkscape:window-width="1920"
   inkscape:window-height="1027"
   inkscape:window-x="1912"
   inkscape:window-y="-8"
   inkscape:window-maximized="1"
   inkscape:current-layer="Capa_1" />
<g
   id="g980"
   style="fill:#ffffff">
	<g
   id="g978"
   style="fill:#ffffff">
		<rect
   x="216"
   y="432"
   width="360"
   height="36"
   id="rect964"
   style="fill:#ffffff" />
		<rect
   x="216"
   y="540"
   width="360"
   height="36"
   id="rect966"
   style="fill:#ffffff" />
		<rect
   x="216"
   y="108"
   width="216"
   height="36"
   id="rect968"
   style="fill:#ffffff" />
		<rect
   x="216"
   y="648"
   width="360"
   height="36"
   id="rect970"
   style="fill:#ffffff" />
		<rect
   x="216"
   y="324"
   width="360"
   height="36"
   id="rect972"
   style="fill:#ffffff" />
		<path
   d="M666.54,792c0,0,17.46,0,17.46-17.604V158.4L526.896,0H125.46c0,0-17.46,0-17.46,17.604V774.36    C108,792,125.46,792,125.46,792H666.54z M144,36h360v108c0,36,36,36,36,36h108v576H144V36z"
   id="path974"
   style="fill:#ffffff" />
		<rect
   x="216"
   y="216"
   width="360"
   height="36"
   id="rect976"
   style="fill:#ffffff" />
	</g>
</g>
<g
   id="g982">
</g>
<g
   id="g984">
</g>
<g
   id="g986">
</g>
<g
   id="g988">
</g>
<g
   id="g990">
</g>
<g
   id="g992">
</g>
<g
   id="g994">
</g>
<g
   id="g996">
</g>
<g
   id="g998">
</g>
<g
   id="g1000">
</g>
<g
   id="g1002">
</g>
<g
   id="g1004">
</g>
<g
   id="g1006">
</g>
<g
   id="g1008">
</g>
<g
   id="g1010">
</g>
</svg>
