<?xml version="1.0" encoding="UTF-8" standalone="no"?>
<!-- Generator: Adobe Illustrator 25.0.0, SVG Export Plug-In . SVG Version: 6.00 Build 0)  -->

<svg
   version="1.1"
   id="Capa_1"
   x="0px"
   y="0px"
   viewBox="0 0 512 512"
   style="enable-background:new 0 0 512 512;"
   xml:space="preserve"
   width="512"
   height="512"
   sodipodi:docname="free-icon-font-cross-circle-3917761.svg"
   inkscape:version="1.2.2 (732a01da63, 2022-12-09)"
   inkscape:export-filename="..\delete_report.png"
   inkscape:export-xdpi="96"
   inkscape:export-ydpi="96"
   xmlns:inkscape="http://www.inkscape.org/namespaces/inkscape"
   xmlns:sodipodi="http://sodipodi.sourceforge.net/DTD/sodipodi-0.dtd"
   xmlns="http://www.w3.org/2000/svg"
   xmlns:svg="http://www.w3.org/2000/svg"><defs
   id="defs3082" /><sodipodi:namedview
   id="namedview3080"
   pagecolor="#ffffff"
   bordercolor="#000000"
   borderopacity="0.25"
   inkscape:showpageshadow="2"
   inkscape:pageopacity="0.0"
   inkscape:pagecheckerboard="0"
   inkscape:deskcolor="#d1d1d1"
   showgrid="false"
   inkscape:zoom="1.6542969"
   inkscape:cx="129.96458"
   inkscape:cy="255.69776"
   inkscape:window-width="1920"
   inkscape:window-height="1027"
   inkscape:window-x="-8"
   inkscape:window-y="-8"
   inkscape:window-maximized="1"
   inkscape:current-layer="Capa_1" />
<g
   id="g3077"
   style="fill:#ff6600">
	<path
   d="M342.635,169.365c-12.493-12.501-32.754-12.507-45.255-0.014c-0.005,0.005-0.01,0.01-0.015,0.014L256,210.752   l-41.365-41.387c-12.501-12.501-32.769-12.501-45.269,0s-12.501,32.769,0,45.269L210.752,256l-41.387,41.365   c-12.501,12.501-12.501,32.769,0,45.269c12.501,12.501,32.769,12.501,45.269,0l0,0L256,301.248l41.365,41.387   c12.501,12.501,32.769,12.501,45.269,0c12.501-12.501,12.501-32.769,0-45.269L301.248,256l41.387-41.365   c12.501-12.493,12.507-32.754,0.014-45.255C342.644,169.375,342.64,169.37,342.635,169.365z"
   id="path3073"
   style="fill:#ff6600" />
	<path
   d="M256,0C114.615,0,0,114.615,0,256s114.615,256,256,256s256-114.615,256-256C511.847,114.678,397.322,0.153,256,0z M256,448   c-106.039,0-192-85.961-192-192S149.961,64,256,64s192,85.961,192,192C447.882,361.99,361.99,447.882,256,448z"
   id="path3075"
   style="fill:#ff6600" />
</g>















</svg>
