<?xml version="1.0" encoding="UTF-8" standalone="no"?>
<svg
   id="Bold"
   viewBox="0 0 24 24"
   width="512"
   height="512"
   version="1.1"
   sodipodi:docname="free-icon-font-star-3916583.svg"
   inkscape:export-filename="..\rating_1.png"
   inkscape:export-xdpi="96"
   inkscape:export-ydpi="96"
   inkscape:version="1.2.1 (9c6d41e410, 2022-07-14)"
   xmlns:inkscape="http://www.inkscape.org/namespaces/inkscape"
   xmlns:sodipodi="http://sodipodi.sourceforge.net/DTD/sodipodi-0.dtd"
   xmlns="http://www.w3.org/2000/svg"
   xmlns:svg="http://www.w3.org/2000/svg">
  <defs
     id="defs120" />
  <sodipodi:namedview
     id="namedview118"
     pagecolor="#505050"
     bordercolor="#eeeeee"
     borderopacity="1"
     inkscape:showpageshadow="0"
     inkscape:pageopacity="0"
     inkscape:pagecheckerboard="0"
     inkscape:deskcolor="#505050"
     showgrid="false"
     inkscape:zoom="1.6542969"
     inkscape:cx="256.30224"
     inkscape:cy="256.90673"
     inkscape:window-width="1920"
     inkscape:window-height="1027"
     inkscape:window-x="-8"
     inkscape:window-y="-8"
     inkscape:window-maximized="1"
     inkscape:current-layer="Bold" />
  <path
     d="M6.852,23.438a3.612,3.612,0,0,1-2.121-.7A3.57,3.57,0,0,1,3.4,18.684L4.57,15.065,1.49,12.813A3.625,3.625,0,0,1,3.63,6.261H7.4l1.145-3.57a3.627,3.627,0,0,1,6.906,0h0L16.6,6.261H20.37a3.625,3.625,0,0,1,2.139,6.552L19.43,15.065,20.6,18.684A3.626,3.626,0,0,1,15,22.719l-3-2.206L9,22.72A3.619,3.619,0,0,1,6.852,23.438ZM3.63,9.261a.626.626,0,0,0-.37,1.131l3.956,2.891a1.5,1.5,0,0,1,.542,1.672l-1.5,4.65a.626.626,0,0,0,.966.7l3.889-2.861a1.5,1.5,0,0,1,1.778,0l3.889,2.86a.625.625,0,0,0,.966-.7l-1.5-4.65a1.5,1.5,0,0,1,.542-1.672l3.955-2.891a.626.626,0,0,0-.369-1.131H15.5a1.5,1.5,0,0,1-1.428-1.042L12.6,3.607a.626.626,0,0,0-1.192,0L9.925,8.219A1.5,1.5,0,0,1,8.5,9.261Z"
     id="path115"
     style="fill:#d40000" />
</svg>
