<?xml version="1.0" encoding="UTF-8" standalone="no"?>
<svg
   id="Layer_1"
   height="512"
   viewBox="0 0 24 24"
   width="512"
   data-name="Layer 1"
   version="1.1"
   sodipodi:docname="free-icon-font-copy-alt-3914174.svg"
   xml:space="preserve"
   inkscape:version="1.2.2 (732a01da63, 2022-12-09)"
   inkscape:export-filename="..\copy_report.png"
   inkscape:export-xdpi="96"
   inkscape:export-ydpi="96"
   xmlns:inkscape="http://www.inkscape.org/namespaces/inkscape"
   xmlns:sodipodi="http://sodipodi.sourceforge.net/DTD/sodipodi-0.dtd"
   xmlns="http://www.w3.org/2000/svg"
   xmlns:svg="http://www.w3.org/2000/svg"><defs
     id="defs7" /><sodipodi:namedview
     id="namedview5"
     pagecolor="#ffffff"
     bordercolor="#000000"
     borderopacity="0.25"
     inkscape:showpageshadow="2"
     inkscape:pageopacity="0.0"
     inkscape:pagecheckerboard="0"
     inkscape:deskcolor="#d1d1d1"
     showgrid="false"
     inkscape:zoom="1.1697645"
     inkscape:cx="166.70021"
     inkscape:cy="308.60912"
     inkscape:window-width="1920"
     inkscape:window-height="1027"
     inkscape:window-x="-8"
     inkscape:window-y="-8"
     inkscape:window-maximized="1"
     inkscape:current-layer="Layer_1" /><path
     d="m13 20a5.006 5.006 0 0 0 5-5v-8.757a3.972 3.972 0 0 0 -1.172-2.829l-2.242-2.242a3.972 3.972 0 0 0 -2.829-1.172h-4.757a5.006 5.006 0 0 0 -5 5v10a5.006 5.006 0 0 0 5 5zm-9-5v-10a3 3 0 0 1 3-3s4.919.014 5 .024v1.976a2 2 0 0 0 2 2h1.976c.01.081.024 9 .024 9a3 3 0 0 1 -3 3h-6a3 3 0 0 1 -3-3zm18-7v11a5.006 5.006 0 0 1 -5 5h-9a1 1 0 0 1 0-2h9a3 3 0 0 0 3-3v-11a1 1 0 0 1 2 0z"
     id="path2"
     style="fill:#ff6600" /></svg>
