<?xml version="1.0" encoding="UTF-8" standalone="no"?>
<svg
   id="Layer_1"
   height="512"
   viewBox="0 0 24 24"
   width="512"
   data-name="Layer 1"
   version="1.1"
   sodipodi:docname="free-icon-font-user-time-3914648.svg"
   inkscape:export-filename="..\Desktop\free-icon-font-user-time-3914648.png"
   inkscape:export-xdpi="96"
   inkscape:export-ydpi="96"
   inkscape:version="1.2.1 (9c6d41e410, 2022-07-14)"
   xmlns:inkscape="http://www.inkscape.org/namespaces/inkscape"
   xmlns:sodipodi="http://sodipodi.sourceforge.net/DTD/sodipodi-0.dtd"
   xmlns="http://www.w3.org/2000/svg"
   xmlns:svg="http://www.w3.org/2000/svg">
  <defs
     id="defs7" />
  <sodipodi:namedview
     id="namedview5"
     pagecolor="#505050"
     bordercolor="#eeeeee"
     borderopacity="1"
     inkscape:showpageshadow="0"
     inkscape:pageopacity="0"
     inkscape:pagecheckerboard="0"
     inkscape:deskcolor="#505050"
     showgrid="false"
     inkscape:zoom="1.6542969"
     inkscape:cx="255.69776"
     inkscape:cy="256.30224"
     inkscape:window-width="1920"
     inkscape:window-height="1027"
     inkscape:window-x="-8"
     inkscape:window-y="-8"
     inkscape:window-maximized="1"
     inkscape:current-layer="Layer_1" />
  <path
     d="m8.474 11a5.5 5.5 0 1 1 5.5-5.5 5.506 5.506 0 0 1 -5.5 5.5zm8.526-1a7 7 0 1 0 7 7 7.008 7.008 0 0 0 -7-7zm2 10.414-3-3v-4.414h2v3.586l2.414 2.414zm-11-3.414a8.938 8.938 0 0 1 .947-4h-3.947a5.006 5.006 0 0 0 -5 5v6h11.349a8.98 8.98 0 0 1 -3.349-7z"
     id="path2"
     style="fill:#cccccc" />
</svg>
